<?xml version="1.0" encoding="utf-8"?>
<svg viewBox="9.912 101.971 291.204 71.27" xmlns="http://www.w3.org/2000/svg">
  <g id="SvgjsG1984" transform="matrix(0.798923, 0, 0, 0.798923, 9.912054, 101.970865)" opacity="1">
    <g id="SvgjsG1985" class="xsMor8mZzj" transform="translate(-7.817938240724156, -11.677916951783384) scale(1.0965979493898026)" light-content="false" non-strokable="false" fill="#19a953">
      <path d="M50.608 31.051l1.332-.666c2.414-6.244 6.077-7.909 8.658-8.408C63.179 21.478 75.75 19.3 75.75 19.3c8.908-1.498 12.404 1.762 14.152 2.677 1.748.916 4.579 3.913 2.164 6.91S75 34.964 68.34 36.379s-13.07-2.248-13.07-2.248c-2.747 4.495-2.78 21.436-2.491 14.911.34-7.688.246-4.662-.833 42.957l-7.332-2.008s.167-9.324.583-19.98c.416-10.656.028-18.371.028-22.755s1.304-13.624 5.383-16.205zm-.65-1.868s-.599-3.543-1.348-6.373-4.162-4.579-10.406-7.326-10.656-2.331-16.9-3.829S8.983 9.406 7.235 16.316c-1.082 5.411 6.41 8.158 10.156 10.489 5.411 4.412 12.904 5.827 15.318 6.16s8.408-1.762 8.991-1.582c.583.18 1.915 1.304 2.914 5.161 0 .002.594-3.691 5.344-7.361z"/>
    </g>
    <g id="SvgjsG1986" class="text" transform="translate(246.1754901742305, 48.014001831054685) scale(1)" light-content="false" fill="#19a953">
      <path d="M -136.02 22.021 L -136.02 -18.779 L -120.96 -18.779 C -116.16 -18.779 -112.22 -17.669 -109.14 -15.449 C -106.06 -13.229 -104.52 -9.919 -104.52 -5.519 C -104.52 -3.119 -105.08 -0.999 -106.2 0.841 C -107.32 2.681 -108.84 4.141 -110.76 5.221 L -101.22 22.021 L -111.72 22.021 L -119.34 7.861 L -126.66 7.861 L -126.66 22.021 L -136.02 22.021 Z M -116.1 -9.779 C -117.3 -10.739 -119.02 -11.219 -121.26 -11.219 L -126.66 -11.219 L -126.66 0.421 L -121.14 0.421 C -119.1 0.421 -117.45 -0.089 -116.19 -1.109 C -114.93 -2.129 -114.3 -3.539 -114.3 -5.339 C -114.3 -7.339 -114.9 -8.819 -116.1 -9.779 Z M -66.42 22.021 L -95.7 22.021 L -95.7 -18.779 L -69.96 -18.779 L -68.82 -11.399 L -86.34 -11.399 L -86.34 -2.219 L -73.38 -2.219 L -72.24 5.161 L -86.34 5.161 L -86.34 14.701 L -67.56 14.701 L -66.42 22.021 Z M -47.1 1.921 L -46.5 9.301 L -62.76 9.301 L -63.42 1.921 L -47.1 1.921 Z M -16.62 -18.779 C -14.5 -18.259 -12.64 -17.519 -11.04 -16.559 L -13.86 -10.079 C -16.02 -10.759 -17.63 -11.219 -18.69 -11.459 C -19.75 -11.699 -21.02 -11.819 -22.5 -11.819 C -24.38 -11.819 -26.13 -11.259 -27.75 -10.139 C -29.37 -9.019 -30.66 -7.429 -31.62 -5.369 C -32.58 -3.309 -33.06 -0.939 -33.06 1.741 C -33.06 4.301 -32.6 6.591 -31.68 8.611 C -30.76 10.631 -29.5 12.211 -27.9 13.351 C -26.3 14.491 -24.5 15.061 -22.5 15.061 C -19.66 15.061 -16.88 14.381 -14.16 13.021 L -10.62 19.981 C -12.14 20.861 -14.01 21.551 -16.23 22.051 C -18.45 22.551 -20.52 22.801 -22.44 22.801 C -26.68 22.801 -30.33 21.901 -33.39 20.101 C -36.45 18.301 -38.78 15.811 -40.38 12.631 C -41.98 9.451 -42.78 5.841 -42.78 1.801 C -42.78 -2.319 -41.92 -5.999 -40.2 -9.239 C -38.48 -12.479 -36.08 -15.009 -33 -16.829 C -29.92 -18.649 -26.4 -19.559 -22.44 -19.559 C -20.68 -19.559 -18.74 -19.299 -16.62 -18.779 Z M 4.38 22.021 L -4.98 22.021 L -4.98 -18.779 L 4.38 -18.779 L 4.38 22.021 Z M 37.44 -18.779 C 39.56 -18.259 41.42 -17.519 43.02 -16.559 L 40.2 -10.079 C 38.04 -10.759 36.43 -11.219 35.37 -11.459 C 34.31 -11.699 33.04 -11.819 31.56 -11.819 C 29.68 -11.819 27.93 -11.259 26.31 -10.139 C 24.69 -9.019 23.4 -7.429 22.44 -5.369 C 21.48 -3.309 21 -0.939 21 1.741 C 21 4.301 21.46 6.591 22.38 8.611 C 23.3 10.631 24.56 12.211 26.16 13.351 C 27.76 14.491 29.56 15.061 31.56 15.061 C 34.4 15.061 37.18 14.381 39.9 13.021 L 43.44 19.981 C 41.92 20.861 40.05 21.551 37.83 22.051 C 35.61 22.551 33.54 22.801 31.62 22.801 C 27.38 22.801 23.73 21.901 20.67 20.101 C 17.61 18.301 15.28 15.811 13.68 12.631 C 12.08 9.451 11.28 5.841 11.28 1.801 C 11.28 -2.319 12.14 -5.999 13.86 -9.239 C 15.58 -12.479 17.98 -15.009 21.06 -16.829 C 24.14 -18.649 27.66 -19.559 31.62 -19.559 C 33.38 -19.559 35.32 -19.299 37.44 -18.779 Z M 76.14 14.701 L 77.22 22.021 L 49.08 22.021 L 49.08 -18.779 L 58.44 -18.779 L 58.44 14.701 L 76.14 14.701 Z M 94.02 -18.779 L 102.84 -18.779 L 118.32 21.541 L 109.08 22.621 L 105.78 13.201 L 90.96 13.201 L 87.78 22.021 L 78.42 22.021 L 94.02 -18.779 Z M 103.02 5.761 L 98.22 -6.899 L 93.6 5.761 L 103.02 5.761 Z"/>
    </g>
    <g id="SvgjsG1987" class="text" transform="translate(164.63548925870316, 77.97400030517578) scale(1)" light-content="false" fill="#19a953"/>
  </g>
</svg>